. 
 
http://www.torrenting.com          :     Once & For all ;)


               www . Torrenting . Com 

(((((((((((((= Enjoy No RAR releases =))))))))))))))))))))


...................................NFO:....................................

.[IMG]http://img851.imageshack.us/img851/3677/71258616832974256259.png[/IMG]


[color=blue][size=5][b]The.Pool.Boys.2010.BDRip.XVID.AC3.HQ.Hive-CM8[/b][/size][/color]


[b]Thx Hive

CM8 Doing It Right The First Time :D


Source: Bluray

Video: 720x384 @bitrate 1700 2pass
Audio: English AC3 5.1 @384
Sample: Yes, included
Subs: Yes, English in srt /subs[/b]
 
http://www.imdb.com/title/tt0807028/


General
Complete name                  : The.Pool.Boys.2010.BDRip.XVID.AC3.HQ.Hive-CM8.avi
Format                         : AVI
Format/Info                    : Audio Video Interleave
File size                      : 1.29 GiB
Duration                       : 1h 28mn
Overall bit rate               : 2 091 Kbps
Writing application            : Nandub v1.0rc2
Writing library                : Nandub build 1853/release

Video
ID                             : 0
Format                         : MPEG-4 Visual
Format profile                 : Advanced Simple@L5
Format settings, BVOP          : 2
Format settings, QPel          : Yes
Format settings, GMC           : No warppoints
Format settings, Matrix        : Default (H.263)
Muxing mode                    : Packed bitstream
Codec ID                       : XVID
Codec ID/Hint                  : XviD
Duration                       : 1h 28mn
Bit rate                       : 1 698 Kbps
Width                          : 720 pixels
Height                         : 384 pixels
Display aspect ratio           : 1.850
Frame rate                     : 23.976 fps
Color space                    : YUV
Chroma subsampling             : 4:2:0
Bit depth                      : 8 bits
Scan type                      : Progressive
Compression mode               : Lossy
Bits/(Pixel*Frame)             : 0.256
Stream size                    : 1.04 GiB (81%)
Writing library                : XviD 1.2.1 (UTC 2008-12-04)

Audio
ID                             : 1
Format                         : AC-3
Format/Info                    : Audio Coding 3
Mode extension                 : CM (complete main)
Codec ID                       : 2000
Duration                       : 1h 28mn
Bit rate mode                  : Constant
Bit rate                       : 384 Kbps
Channel(s)                     : 6 channels
Channel positions              : Front: L C R, Side: L R, LFE
Sampling rate                  : 48.0 KHz
Bit depth                      : 16 bits
Compression mode               : Lossy
Stream size                    : 242 MiB (18%)
Alignment                      : Split accross interleaves
Interleave, duration           : 42 ms (1.00 video frame)
Interleave, preload duration   : 500 ms


Plot:
A pool boy and a gardener turn an empty mansion into a home for
women who belong to the world's oldest profession.


Cast:
Matthew Lillard    ...    Roger
Brett Davern       ...    Alex Sperling
Efren Ramirez      ...    Hector
Rachelle Lefevre   ...    Laura


[img]http://img403.imageshack.us/img403/5184/86163824.png[/img]
[img]http://img843.imageshack.us/img843/1216/popofh.png[/img]
[img]http://img829.imageshack.us/img829/6407/popopo.png[/img]
[img]http://img195.imageshack.us/img195/9035/popopopo.png[/img]
[img]http://img841.imageshack.us/img841/5661/popopopopo.png[/img]
[img]http://img194.imageshack.us/img194/5267/popopopopopo.png[/img]
[img]http://img818.imageshack.us/img818/3853/popopopopopopo.png[/img]
[img]http://img440.imageshack.us/img440/3660/popopopopopopopo.png[/img]



Greetz

ViSiON,SPK,SANTi,3LT0N,FUSiON,YanKeeS,MAGNET,THC,LKRG,Feel-Free,FANTASIA-PLAY,FANTASIA-M,FLAWL3SS,
WBZ,ZMG,BHRG,NOVA,D2U,Vik,Rapeseed,T0XiC,SAFC,goldadvance,MEMORY100,KaN1vE,Unevano,Pinnz,Wayne
Mr Hive,and most P2P groups
Great Work Guys :D

LOOKING FOR ANYTHING YOU WANT TO LOOK AND SOUND BETTER

CM8@hushmail.com